HIERARCHY
ROOT WRIST
{
	OFFSET 0.000000 0.000000 0.000000
	CHANNELS 6 Xposition Yposition Zposition Yrotation Xrotation Zrotation
	JOINT THUMB_CMC_FE
	{
		OFFSET -0.225143 0.117753 -0.062308
		CHANNELS 3 Yrotation Xrotation Zrotation
		JOINT THUMB_CMC_AA
		{
			OFFSET -0.212856 -0.150507 0.098851
			CHANNELS 3 Yrotation Xrotation Zrotation
			JOINT THUMB_MCP_FE
			{
				OFFSET 0.322503 -0.167445 -0.031436
				CHANNELS 3 Yrotation Xrotation Zrotation
				JOINT THUMB_IP_FE
				{
					OFFSET -0.295233 -0.236404 0.025845
					CHANNELS 3 Yrotation Xrotation Zrotation
					End Site
					{
						OFFSET 0.000000 0.000000 0.000000
					}
				}
			}
		}
	}
	JOINT INDEX_MCP
	{
		OFFSET -1.076913 0.264198 -0.014768
		CHANNELS 3 Yrotation Xrotation Zrotation
		JOINT INDEX_PIP_FE
		{
			OFFSET -0.425053 0.013289 0.013619
			CHANNELS 3 Yrotation Xrotation Zrotation
			JOINT INDEX_DIP_FE
			{
				OFFSET -0.271505 -0.024898 0.000550
				CHANNELS 3 Yrotation Xrotation Zrotation
				End Site
				{
					OFFSET 0.000000 0.000000 0.000000
				}
			}
		}
	}
	JOINT MIDDLE_MCP
	{
		OFFSET -1.072991 0.019362 0.038780
		CHANNELS 3 Yrotation Xrotation Zrotation
		JOINT MIDDLE_PIP_FE
		{
			OFFSET -0.480704 0.002618 0.028696
			CHANNELS 3 Yrotation Xrotation Zrotation
			JOINT MIDDLE_DIP_FE
			{
				OFFSET -0.307486 -0.031129 -0.000643
				CHANNELS 3 Yrotation Xrotation Zrotation
				End Site
				{
					OFFSET 0.000000 0.000000 0.000000
				}
			}
		}
	}
	JOINT RING_MCP
	{
		OFFSET -0.994992 -0.195930 -0.005938
		CHANNELS 3 Yrotation Xrotation Zrotation
		JOINT RING_PIP_FE
		{
			OFFSET -0.436995 0.003792 0.019994
			CHANNELS 3 Yrotation Xrotation Zrotation
			JOINT RING_DIP_FE
			{
				OFFSET -0.295558 -0.038341 -0.006642
				CHANNELS 3 Yrotation Xrotation Zrotation
				End Site
				{
					OFFSET 0.000000 0.000000 0.000000
				}
			}
		}
	}
	JOINT PINKY_MCP
	{
		OFFSET -0.873858 -0.393246 -0.086282
		CHANNELS 3 Yrotation Xrotation Zrotation
		JOINT PINKY_PIP_FE
		{
			OFFSET -0.343972 -0.016492 0.013445
			CHANNELS 3 Yrotation Xrotation Zrotation
			JOINT PINKY_DIP_FE
			{
				OFFSET -0.224713 -0.036309 -0.010265
				CHANNELS 3 Yrotation Xrotation Zrotation
				End Site
				{
					OFFSET 0.000000 0.000000 0.000000
				}
			}
		}
	}
}
MOTION
Frames: 21
Frame Time: 0.008333334
-0.953252 2.886416 3.478927 -116.413700 -74.685240 -0.657654 -61.461180 4.834480 -74.289310 -119.352900 -30.976930 5.321382 112.864000 -65.843230 42.461470 -4.562103 -8.459839 20.554330 168.540000 3.338940 174.664400 41.978260 -86.125610 -31.844120 2.052619 1.704989 25.746360 173.711200 -1.381226 168.622600 39.240720 -88.411190 -23.451200 6.002505 4.395452 -5.204803 -174.086800 -4.064026 167.717000 31.479430 -85.617830 -0.915833 -0.199310 0.562918 -4.968506 -165.662400 -8.226501 162.691900 48.977510 -83.530610 -12.128020 -5.539795 0.809167 27.000710 
-0.953271 2.886298 3.478982 -116.360900 -74.652650 -0.705872 -61.461180 4.834482 -74.278560 -119.352900 -30.976960 5.307099 112.863900 -65.843200 42.443770 -4.562073 -8.459839 20.596560 168.488300 3.338128 174.669500 41.978150 -86.125610 -31.908020 2.052636 1.705004 25.780060 173.694900 -1.382782 168.647600 39.240940 -88.411440 -23.434880 6.002514 4.395461 -5.204803 -174.087200 -4.064148 167.723100 31.479550 -85.617800 -0.901337 -0.199310 0.562926 -4.968536 -165.663600 -8.226959 162.702300 48.977620 -83.530610 -12.166470 -5.539795 0.809162 27.101600 
-0.953213 2.886431 3.478839 -116.330300 -74.625180 -0.748169 -61.461180 4.834473 -74.234010 -119.352900 -30.976960 5.306367 112.863900 -65.843200 42.385820 -4.562103 -8.459839 20.649000 168.453900 3.337583 174.633900 41.978290 -86.125550 -31.916500 2.052607 1.705000 25.779570 173.749200 -1.377563 168.618900 39.240810 -88.411560 -23.250400 6.002513 4.395444 -5.204803 -174.077100 -4.061523 167.691200 31.479540 -85.617680 -0.852936 -0.199310 0.562916 -4.968506 -165.539500 -8.180176 162.653100 48.977670 -83.530550 -11.669830 -5.539795 0.809175 26.842680 
-0.953098 2.886060 3.478981 -116.189700 -74.631440 -0.886932 -61.461180 4.834472 -74.283170 -119.352900 -30.976930 5.253566 112.864000 -65.843230 42.421070 -4.562103 -8.459839 20.752350 168.369000 3.336228 174.630200 41.978170 -86.125520 -31.981050 2.052619 1.705000 25.794310 173.652700 -1.386871 168.610900 39.240630 -88.411440 -23.345830 6.002527 4.395448 -5.204803 -174.143800 -4.078644 167.692400 31.479410 -85.617680 -0.800171 -0.199310 0.562921 -4.968506 -165.629600 -8.214172 162.625800 48.977600 -83.530580 -11.955110 -5.539825 0.809167 26.508020 
-0.953061 2.885702 3.479082 -116.095500 -74.636320 -0.982178 -61.461180 4.834472 -74.288880 -119.352900 -30.976930 5.248003 112.863900 -65.843230 42.421260 -4.562073 -8.459808 20.703930 168.340000 3.335775 174.630500 41.978080 -86.125610 -32.010960 2.052638 1.705004 25.853160 173.603100 -1.391663 168.599200 39.240580 -88.411440 -23.393490 6.002523 4.395452 -5.204803 -174.176400 -4.086975 167.689000 31.479610 -85.617800 -0.813355 -0.199310 0.562923 -4.968506 -165.623400 -8.211792 162.657500 48.977580 -83.530610 -11.670840 -5.539795 0.809165 26.575630 
-0.953126 2.885648 3.479103 -116.082600 -74.613590 -1.006134 -61.461180 4.834472 -74.261140 -119.352900 -30.976930 5.240101 112.864000 -65.843200 42.423330 -4.562073 -8.459839 20.765290 168.311200 3.335307 174.603700 41.978410 -86.125550 -32.053710 2.052637 1.705007 25.893860 173.594800 -1.392456 168.573000 39.240280 -88.411440 -23.403080 6.002511 4.395449 -5.204803 -174.169700 -4.085266 167.665300 31.479400 -85.617830 -0.812622 -0.199310 0.562914 -4.968536 -165.627800 -8.213470 162.600600 48.977590 -83.530580 -11.916470 -5.539825 0.809175 26.450000 
-0.953168 2.885629 3.479153 -116.081500 -74.606080 -1.006439 -61.461180 4.834473 -74.255740 -119.352900 -30.976960 5.247865 112.864000 -65.843200 42.412840 -4.562073 -8.459839 20.775800 168.285300 3.334910 174.600800 41.978180 -86.125670 -32.062500 2.052630 1.705005 25.805500 173.602600 -1.391693 168.573700 39.240630 -88.411440 -23.405580 6.002523 4.395455 -5.204803 -174.178100 -4.087433 167.661500 31.479420 -85.617680 -0.912842 -0.199310 0.562936 -4.968536 -165.576700 -8.194214 162.624500 48.977580 -83.530610 -11.591610 -5.539795 0.809162 26.515660 
-0.953108 2.885652 3.479152 -116.107200 -74.594880 -0.975678 -61.461180 4.834478 -74.242770 -119.352900 -30.976930 5.274088 112.864000 -65.843200 42.400900 -4.562073 -8.459869 20.686230 168.329600 3.335613 174.591200 41.978080 -86.125670 -32.006680 2.052635 1.705002 25.828970 173.657900 -1.386353 168.558000 39.241100 -88.411560 -23.323940 6.002495 4.395442 -5.204803 -174.147500 -4.079559 167.664000 31.479480 -85.617830 -0.798218 -0.199310 0.562922 -4.968506 -165.568600 -8.191132 162.563900 48.977550 -83.530640 -11.779170 -5.539795 0.809194 26.323260 
-0.953394 2.885777 3.479012 -116.156100 -74.564150 -0.940064 -61.461180 4.834465 -74.219090 -119.352900 -30.976930 5.285763 112.864000 -65.843230 42.414650 -4.562073 -8.459839 20.639100 168.333500 3.335674 174.571500 41.978050 -86.125550 -32.024230 2.052633 1.704994 25.824820 173.687200 -1.383514 168.556100 39.240690 -88.411440 -23.303250 6.002518 4.395463 -5.204803 -174.102700 -4.068085 167.645100 31.479620 -85.617800 -0.840454 -0.199310 0.562945 -4.968536 -165.515200 -8.170990 162.570900 48.977580 -83.530580 -11.651580 -5.539825 0.809180 26.544280 
-0.953311 2.886023 3.478967 -116.187200 -74.567930 -0.892151 -61.461180 4.834475 -74.244960 -119.352900 -30.976930 5.280390 112.864000 -65.843200 42.431370 -4.562103 -8.459869 20.608920 168.360500 3.336102 174.600800 41.978330 -86.125610 -31.956670 2.052626 1.704995 25.803710 173.664000 -1.385773 168.586400 39.240200 -88.411320 -23.359040 6.002518 4.395453 -5.204803 -174.104400 -4.068542 167.682000 31.479600 -85.617740 -0.757233 -0.199310 0.562931 -4.968506 -165.551400 -8.184631 162.591600 48.977550 -83.530610 -11.821380 -5.539795 0.809176 26.414610 
-0.953332 2.885713 3.479037 -116.087400 -74.591030 -0.975403 -61.461180 4.834485 -74.300380 -119.352900 -30.976930 5.258786 112.864000 -65.843200 42.469350 -4.562073 -8.459839 20.591310 168.341100 3.335783 174.646300 41.978310 -86.125760 -31.939120 2.052620 1.704996 25.780780 173.593700 -1.392578 168.616900 39.240930 -88.411560 -23.429750 6.002529 4.395452 -5.204803 -174.182200 -4.088470 167.719600 31.479480 -85.617740 -0.909882 -0.199310 0.562930 -4.968536 -165.611000 -8.207123 162.694500 48.977520 -83.530610 -11.648380 -5.539795 0.809184 26.522550 
-0.953408 2.886096 3.478840 -116.172700 -74.569400 -0.899353 -61.461180 4.834465 -74.278530 -119.352900 -30.976930 5.255016 112.864000 -65.843200 42.462910 -4.562073 -8.459869 20.593490 168.362900 3.336142 174.628300 41.977930 -86.125700 -31.926970 2.052648 1.705005 25.749090 173.646900 -1.387421 168.622300 39.240740 -88.411440 -23.354770 6.002519 4.395438 -5.204803 -174.133400 -4.075958 167.703400 31.479620 -85.617860 -0.865662 -0.199310 0.562924 -4.968506 -165.581900 -8.196167 162.645800 48.977650 -83.530610 -11.820190 -5.539825 0.809164 26.736420 
-0.953301 2.885714 3.478902 -116.034100 -74.552280 -1.034332 -61.461180 4.834473 -74.272950 -119.352900 -30.976930 5.206592 112.864000 -65.843230 42.468750 -4.562103 -8.459839 20.607700 168.262000 3.334533 174.620200 41.978230 -86.125670 -32.010740 2.052636 1.705001 25.744980 173.577800 -1.394104 168.621100 39.240900 -88.411190 -23.396450 6.002517 4.395434 -5.204803 -174.183600 -4.088837 167.704400 31.479470 -85.617860 -0.799530 -0.199310 0.562926 -4.968506 -165.633600 -8.215668 162.647800 48.977580 -83.530580 -11.899230 -5.539825 0.809182 26.906850 
-0.953140 2.885650 3.478883 -116.047800 -74.593320 -1.014709 -61.461180 4.834476 -74.313420 -119.352900 -30.976960 5.218549 112.863900 -65.843230 42.488610 -4.562103 -8.459839 20.690180 168.309400 3.335282 174.638500 41.978280 -86.125610 -31.963960 2.052622 1.704995 25.781330 173.608700 -1.391113 168.637100 39.240660 -88.411440 -23.338750 6.002526 4.395452 -5.204803 -174.207900 -4.095062 167.712000 31.479760 -85.617800 -0.888031 -0.199310 0.562915 -4.968506 -165.670700 -8.229645 162.656000 48.977620 -83.530640 -11.959410 -5.539795 0.809166 27.014810 
-0.953049 2.885609 3.478834 -115.997400 -74.576020 -1.063293 -61.461180 4.834482 -74.284700 -119.352900 -30.976960 5.180740 112.863900 -65.843230 42.438520 -4.562073 -8.459839 20.760700 168.268200 3.334619 174.629100 41.978400 -86.125550 -31.982540 2.052619 1.704993 25.787300 173.594200 -1.392517 168.635600 39.240170 -88.411440 -23.300110 6.002511 4.395432 -5.204803 -174.205100 -4.094360 167.697900 31.479650 -85.617740 -0.824066 -0.199310 0.562928 -4.968506 -165.599000 -8.202637 162.664200 48.977580 -83.530610 -11.610350 -5.539825 0.809179 26.883810 
-0.953327 2.885650 3.478548 -116.064700 -74.588560 -1.027405 -61.461180 4.834475 -74.250730 -119.352900 -30.976930 5.198417 112.864000 -65.843230 42.386650 -4.562103 -8.459839 20.788430 168.314000 3.335355 174.587400 41.978280 -86.125670 -31.948730 2.052609 1.704993 25.802410 173.642900 -1.387817 168.590000 39.240610 -88.411440 -23.251400 6.002532 4.395441 -5.204803 -174.163400 -4.083649 167.655300 31.479580 -85.617860 -0.771240 -0.199310 0.562940 -4.968536 -165.590800 -8.199524 162.582100 48.977460 -83.530580 -11.761410 -5.539825 0.809169 26.875950 
-0.953164 2.885703 3.478502 -116.076900 -74.578030 -1.014954 -61.461180 4.834472 -74.249080 -119.352900 -30.976960 5.190700 112.863900 -65.843230 42.410160 -4.562103 -8.459839 20.825890 168.315700 3.335387 174.570500 41.978110 -86.125610 -31.945530 2.052621 1.704996 25.801140 173.659800 -1.386169 168.578000 39.240330 -88.411190 -23.220210 6.002527 4.395457 -5.204803 -174.117500 -4.071869 167.631900 31.479440 -85.617740 -0.721039 -0.199310 0.562930 -4.968506 -165.582300 -8.196320 162.566200 48.977480 -83.530610 -11.781680 -5.539795 0.809190 26.943890 
-0.953111 2.885431 3.478488 -116.024200 -74.624850 -1.054840 -61.461180 4.834480 -74.295380 -119.352900 -30.976960 5.197463 112.864000 -65.843230 42.419440 -4.562103 -8.459839 20.837980 168.339700 3.335764 174.612600 41.978030 -86.125700 -31.893830 2.052624 1.704990 25.797070 173.636500 -1.388428 168.598500 39.240380 -88.411320 -23.230500 6.002525 4.395445 -5.204803 -174.167300 -4.084625 167.665100 31.479690 -85.617860 -0.747131 -0.199341 0.562908 -4.968506 -165.633300 -8.215546 162.596200 48.977480 -83.530580 -11.787020 -5.539825 0.809175 26.962330 
-0.953072 2.885492 3.478404 -116.017700 -74.610350 -1.053284 -61.461180 4.834470 -74.312350 -119.352900 -30.976930 5.194309 112.864000 -65.843230 42.441390 -4.562103 -8.459839 20.802230 168.328700 3.335589 174.627000 41.978420 -86.125700 -31.888090 2.052639 1.705021 25.793170 173.597600 -1.392181 168.595600 39.240740 -88.411190 -23.319670 6.002516 4.395446 -5.204803 -174.169100 -4.085114 167.678500 31.479660 -85.617800 -0.746918 -0.199310 0.562932 -4.968536 -165.646400 -8.220459 162.610900 48.977470 -83.530550 -11.820770 -5.539825 0.809175 26.979650 
-0.953176 2.885551 3.478338 -115.989200 -74.600860 -1.079529 -61.461180 4.834463 -74.330720 -119.352900 -30.976930 5.166657 112.863900 -65.843230 42.463210 -4.562073 -8.459839 20.774120 168.290800 3.334989 174.636600 41.978240 -86.125670 -31.910030 2.052629 1.704989 25.777920 173.602400 -1.391724 168.625400 39.241030 -88.411560 -23.257570 6.002513 4.395448 -5.204803 -174.184700 -4.089111 167.688900 31.479390 -85.617830 -0.735046 -0.199310 0.562930 -4.968536 -165.691000 -8.237305 162.629800 48.977630 -83.530610 -11.889860 -5.539825 0.809169 26.979940 
-0.953479 2.885978 3.477973 -116.125900 -74.606140 -0.968506 -61.461180 4.834466 -74.332670 -119.352900 -30.976930 5.213204 112.864000 -65.843200 42.509510 -4.562073 -8.459839 20.695980 168.398900 3.336722 174.604100 41.978190 -86.125550 -31.814300 2.052624 1.704990 25.844700 173.666800 -1.385498 168.576200 39.241200 -88.411560 -23.221130 6.002514 4.395441 -5.204803 -174.122200 -4.073090 167.659300 31.479570 -85.617860 -0.690247 -0.199310 0.562931 -4.968536 -165.611900 -8.207458 162.595300 48.977630 -83.530640 -11.788510 -5.539795 0.809180 26.934450 
